<mxfile host="app.diagrams.net" modified="2023-11-08T07:59:01.061Z" agent="Mozilla/5.0 (Macintosh; Intel Mac OS X 10_15_7) AppleWebKit/537.36 (KHTML, like Gecko) Chrome/118.0.0.0 Safari/537.36" version="22.0.8" etag="HBi4IEaXVFGSkMNLxt_X" type="github">
  <diagram name="第 1 页" id="nmdY_U9PDr28miNkvxMK">
    <mxGraphModel>
      <root>
        <mxCell id="0" />
        <mxCell id="1" parent="0" />
      </root>
    </mxGraphModel>
  </diagram>
</mxfile>
